<?xml version="1.0" standalone="no"?>
<!DOCTYPE svg PUBLIC "-//W3C//DTD SVG 20010904//EN"
 "http://www.w3.org/TR/2001/REC-SVG-20010904/DTD/svg10.dtd">
<svg version="1.0" xmlns="http://www.w3.org/2000/svg"
 width="96.000000pt" height="96.000000pt" viewBox="0 0 96.000000 96.000000"
 preserveAspectRatio="xMidYMid meet">

<g transform="translate(0.000000,96.000000) scale(0.100000,-0.100000)"
fill="#000000" stroke="none">
<path d="M420 953 c-155 -26 -310 -135 -376 -265 -80 -157 -42 -403 82 -537
182 -197 496 -199 689 -6 71 71 109 137 130 226 39 166 -8 331 -127 451 -107
107 -253 155 -398 131z m203 -58 c72 -36 149 -112 182 -179 36 -73 58 -203 53
-308 -2 -48 -7 -90 -10 -93 -3 -4 -20 1 -37 9 l-30 16 -73 -73 c-140 -139
-296 -179 -460 -117 -101 38 -190 138 -216 245 -17 66 -23 125 -13 125 4 0 11
-21 15 -47 15 -113 103 -231 213 -284 62 -30 171 -37 244 -16 78 23 171 87
221 152 42 54 49 57 91 40 15 -6 17 1 17 81 0 49 -3 106 -6 126 l-7 38 -71
-62 c-121 -105 -113 -94 -80 -111 l29 -16 -61 -59 c-75 -73 -143 -102 -243
-102 -83 0 -141 19 -205 68 -72 55 -108 125 -114 221 -5 97 20 169 85 241 88
98 193 142 328 137 76 -2 99 -7 148 -32z"/>
</g>
</svg>
